<svg width="currentWidth" height="currentHeight" viewBox="0 0 35 35" fill="none" xmlns="http://www.w3.org/2000/svg">
<path d="M16.0415 23.7917C16.0415 24.3439 16.4892 24.7917 17.0415 24.7917H17.9582C18.5105 24.7917 18.9582 24.344 18.9582 23.7917V19.9583C18.9582 19.406 19.4059 18.9583 19.9582 18.9583H23.7915C24.3438 18.9583 24.7915 18.5106 24.7915 17.9583V17.0417C24.7915 16.4894 24.3438 16.0417 23.7915 16.0417H19.9582C19.4059 16.0417 18.9582 15.594 18.9582 15.0417V11.2083C18.9582 10.656 18.5105 10.2083 17.9582 10.2083H17.0415C16.4892 10.2083 16.0415 10.656 16.0415 11.2083V15.0417C16.0415 15.5939 15.5938 16.0417 15.0415 16.0417H11.2082C10.6559 16.0417 10.2082 16.4894 10.2082 17.0417V17.9583C10.2082 18.5106 10.6559 18.9583 11.2082 18.9583H15.0415C15.5938 18.9583 16.0415 19.406 16.0415 19.9583V23.7917ZM17.4998 32.0833C15.4825 32.0833 13.5866 31.7066 11.8123 30.9531C10.038 30.1753 8.49463 29.1302 7.18213 27.8177C5.86963 26.5052 4.82449 24.9618 4.04671 23.1875C3.29324 21.4132 2.9165 19.5174 2.9165 17.5C2.9165 15.4826 3.29324 13.5868 4.04671 11.8125C4.82449 10.0382 5.86963 8.49479 7.18213 7.18229C8.49463 5.86979 10.038 4.8368 11.8123 4.08333C13.5866 3.30555 15.4825 2.91667 17.4998 2.91667C19.5172 2.91667 21.413 3.30555 23.1873 4.08333C24.9616 4.8368 26.505 5.86979 27.8175 7.18229C29.13 8.49479 30.163 10.0382 30.9165 11.8125C31.6943 13.5868 32.0832 15.4826 32.0832 17.5C32.0832 19.5174 31.6943 21.4132 30.9165 23.1875C30.163 24.9618 29.13 26.5052 27.8175 27.8177C26.505 29.1302 24.9616 30.1753 23.1873 30.9531C21.413 31.7066 19.5172 32.0833 17.4998 32.0833ZM17.4998 29.1667C20.7568 29.1667 23.5155 28.0365 25.7759 25.776C28.0363 23.5156 29.1665 20.7569 29.1665 17.5C29.1665 14.2431 28.0363 11.4844 25.7759 9.22396C23.5155 6.96354 20.7568 5.83333 17.4998 5.83333C14.2429 5.83333 11.4842 6.96354 9.22379 9.22396C6.96338 11.4844 5.83317 14.2431 5.83317 17.5C5.83317 20.7569 6.96338 23.5156 9.22379 25.776C11.4842 28.0365 14.2429 29.1667 17.4998 29.1667Z" fill="currentColor"/>
</svg>
