<svg width="16" height="4" viewBox="0 0 16 4" fill="none" xmlns="http://www.w3.org/2000/svg">
<path d="M8 2.83333C8.48325 2.83333 8.875 2.42293 8.875 1.91667C8.875 1.41041 8.48325 1 8 1C7.51675 1 7.125 1.41041 7.125 1.91667C7.125 2.42293 7.51675 2.83333 8 2.83333Z" stroke="currentColor" stroke-width="2" stroke-linecap="round" stroke-linejoin="round"/>
<path d="M14.125 2.83333C14.6083 2.83333 15 2.42293 15 1.91667C15 1.41041 14.6083 1 14.125 1C13.6418 1 13.25 1.41041 13.25 1.91667C13.25 2.42293 13.6418 2.83333 14.125 2.83333Z" stroke="currentColor" stroke-width="2" stroke-linecap="round" stroke-linejoin="round"/>
<path d="M1.875 2.83333C2.35825 2.83333 2.75 2.42293 2.75 1.91667C2.75 1.41041 2.35825 1 1.875 1C1.39175 1 1 1.41041 1 1.91667C1 2.42293 1.39175 2.83333 1.875 2.83333Z" stroke="currentColor" stroke-width="2" stroke-linecap="round" stroke-linejoin="round"/>
</svg>
